# xmcd CD database file
#
# Track frame offsets:
#	150
#	20845
#	38490
#	63012
#	92036
#	111462
#	142190
#	168267
#	188894
#	211482
#	235943
#	261474
#	284569
#	304649
#
# Disc length: 4152 seconds
#
# Revision: 5
# Processed by: cddbd v1.5.1PL2 Copyright (c) Steve Scherf et al.
# Submitted via: CDex 1.51
#
DISCID=d010360e
DTITLE=Söhne Mannheims - NOIZ
DYEAR=2004
DGENRE=New Age
TTITLE0=Wenn du schläfst
TTITLE1=Vielleicht
TTITLE2=Von Anfang an dabei
TTITLE3=Babylon System
TTITLE4=König der Könige
TTITLE5=Traurige Lieder
TTITLE6=ZION
TTITLE7=Im Interesse unserer Gemeinschaft
TTITLE8=Ich geh mit dir
TTITLE9=Can you feel it?
TTITLE10=Dein Leben
TTITLE11=Zurück zu dir
TTITLE12=Und wenn ein Lied
TTITLE13=Vater unser
EXTD=YEAR: 2004
EXTT0=
EXTT1=
EXTT2=
EXTT3=
EXTT4=
EXTT5=
EXTT6=
EXTT7=
EXTT8=
EXTT9=
EXTT10=
EXTT11=
EXTT12=
EXTT13=
PLAYORDER=
